# xmcd
#
# Track frame offsets:
#	150
#	11180
#	24846
#	46869
#	70266
#	91061
#	107013
#	128291
#
# Disc length: 2020 seconds
#
# Revision: 2
# Processed by: cddbd v1.5.2PL0 Copyright (c) Steve Scherf et al.
# Submitted via: EasyCDDAExtractor 11.0.3.1
#
DISCID=5307e208
DTITLE=Ryan Adams and The Cardinals - Everybody Knows EP
DYEAR=2007
DGENRE=Country-Male vocal
TTITLE0=Everybody Knows
TTITLE1=Follow The Light
TTITLE2=My Love For You Is Real
TTITLE3=Blue Hotel
TTITLE4=Down In A Hole
TTITLE5=This Is It
TTITLE6=If I Am A Stranger
TTITLE7=Dear John
EXTD=YEAR: 2007
EXTT0=
EXTT1=
EXTT2=
EXTT3=
EXTT4=
EXTT5=
EXTT6=
EXTT7=
PLAYORDER=
